<mxfile host="app.diagrams.net" modified="2020-09-18T22:59:39.529Z" agent="5.0 (Windows NT 10.0; Win64; x64) AppleWebKit/537.36 (KHTML, like Gecko) Chrome/85.0.4183.102 Safari/537.36" etag="8jvB7kcRtPVkmbaCvckC" version="13.7.1" type="github">
  <diagram id="C5RBs43oDa-KdzZeNtuy" name="Page-1">
    <mxGraphModel dx="1240" dy="743" grid="1" gridSize="10" guides="1" tooltips="1" connect="1" arrows="1" fold="1" page="1" pageScale="1" pageWidth="827" pageHeight="1169" math="0" shadow="0">
      <root>
        <mxCell id="WIyWlLk6GJQsqaUBKTNV-0" />
        <mxCell id="WIyWlLk6GJQsqaUBKTNV-1" parent="WIyWlLk6GJQsqaUBKTNV-0" />
        <mxCell id="d1IcYzjku8XP-8QEShXr-4" style="edgeStyle=orthogonalEdgeStyle;rounded=0;orthogonalLoop=1;jettySize=auto;html=1;exitX=0.5;exitY=1;exitDx=0;exitDy=0;entryX=0.5;entryY=0;entryDx=0;entryDy=0;" edge="1" parent="WIyWlLk6GJQsqaUBKTNV-1" source="d1IcYzjku8XP-8QEShXr-2" target="d1IcYzjku8XP-8QEShXr-3">
          <mxGeometry relative="1" as="geometry">
            <Array as="points">
              <mxPoint x="235" y="50" />
            </Array>
          </mxGeometry>
        </mxCell>
        <mxCell id="d1IcYzjku8XP-8QEShXr-2" value="" style="ellipse;whiteSpace=wrap;html=1;" vertex="1" parent="WIyWlLk6GJQsqaUBKTNV-1">
          <mxGeometry x="205" y="10" width="60" height="20" as="geometry" />
        </mxCell>
        <mxCell id="d1IcYzjku8XP-8QEShXr-6" style="edgeStyle=orthogonalEdgeStyle;rounded=0;orthogonalLoop=1;jettySize=auto;html=1;exitX=0.5;exitY=1;exitDx=0;exitDy=0;entryX=0.5;entryY=0;entryDx=0;entryDy=0;" edge="1" parent="WIyWlLk6GJQsqaUBKTNV-1" source="d1IcYzjku8XP-8QEShXr-3" target="d1IcYzjku8XP-8QEShXr-5">
          <mxGeometry relative="1" as="geometry" />
        </mxCell>
        <mxCell id="d1IcYzjku8XP-8QEShXr-3" value="" style="shape=parallelogram;perimeter=parallelogramPerimeter;whiteSpace=wrap;html=1;fixedSize=1;" vertex="1" parent="WIyWlLk6GJQsqaUBKTNV-1">
          <mxGeometry x="70" y="70" width="330" height="110" as="geometry" />
        </mxCell>
        <mxCell id="d1IcYzjku8XP-8QEShXr-8" style="edgeStyle=orthogonalEdgeStyle;rounded=0;orthogonalLoop=1;jettySize=auto;html=1;exitX=1;exitY=0.5;exitDx=0;exitDy=0;entryX=0.5;entryY=0;entryDx=0;entryDy=0;" edge="1" parent="WIyWlLk6GJQsqaUBKTNV-1" source="d1IcYzjku8XP-8QEShXr-5" target="d1IcYzjku8XP-8QEShXr-7">
          <mxGeometry relative="1" as="geometry">
            <Array as="points">
              <mxPoint x="320" y="270" />
              <mxPoint x="498" y="270" />
            </Array>
          </mxGeometry>
        </mxCell>
        <mxCell id="d1IcYzjku8XP-8QEShXr-22" style="edgeStyle=orthogonalEdgeStyle;rounded=0;orthogonalLoop=1;jettySize=auto;html=1;exitX=0.5;exitY=1;exitDx=0;exitDy=0;" edge="1" parent="WIyWlLk6GJQsqaUBKTNV-1" source="d1IcYzjku8XP-8QEShXr-5" target="d1IcYzjku8XP-8QEShXr-25">
          <mxGeometry relative="1" as="geometry">
            <mxPoint x="290" y="770" as="targetPoint" />
          </mxGeometry>
        </mxCell>
        <mxCell id="d1IcYzjku8XP-8QEShXr-5" value="" style="rhombus;whiteSpace=wrap;html=1;" vertex="1" parent="WIyWlLk6GJQsqaUBKTNV-1">
          <mxGeometry x="90" y="200" width="230" height="210" as="geometry" />
        </mxCell>
        <mxCell id="d1IcYzjku8XP-8QEShXr-43" style="edgeStyle=orthogonalEdgeStyle;rounded=0;orthogonalLoop=1;jettySize=auto;html=1;exitX=1;exitY=0.5;exitDx=0;exitDy=0;entryX=0.5;entryY=0;entryDx=0;entryDy=0;" edge="1" parent="WIyWlLk6GJQsqaUBKTNV-1" source="d1IcYzjku8XP-8QEShXr-7" target="d1IcYzjku8XP-8QEShXr-12">
          <mxGeometry relative="1" as="geometry" />
        </mxCell>
        <mxCell id="d1IcYzjku8XP-8QEShXr-7" value="" style="rhombus;whiteSpace=wrap;html=1;" vertex="1" parent="WIyWlLk6GJQsqaUBKTNV-1">
          <mxGeometry x="395" y="290" width="205" height="180" as="geometry" />
        </mxCell>
        <mxCell id="d1IcYzjku8XP-8QEShXr-15" style="edgeStyle=orthogonalEdgeStyle;rounded=0;orthogonalLoop=1;jettySize=auto;html=1;exitX=0;exitY=0.5;exitDx=0;exitDy=0;entryX=0.5;entryY=0;entryDx=0;entryDy=0;" edge="1" parent="WIyWlLk6GJQsqaUBKTNV-1" source="d1IcYzjku8XP-8QEShXr-12" target="d1IcYzjku8XP-8QEShXr-14">
          <mxGeometry relative="1" as="geometry" />
        </mxCell>
        <mxCell id="d1IcYzjku8XP-8QEShXr-17" style="edgeStyle=orthogonalEdgeStyle;rounded=0;orthogonalLoop=1;jettySize=auto;html=1;exitX=1;exitY=0.5;exitDx=0;exitDy=0;entryX=0.5;entryY=0;entryDx=0;entryDy=0;" edge="1" parent="WIyWlLk6GJQsqaUBKTNV-1" source="d1IcYzjku8XP-8QEShXr-12" target="d1IcYzjku8XP-8QEShXr-16">
          <mxGeometry relative="1" as="geometry" />
        </mxCell>
        <mxCell id="d1IcYzjku8XP-8QEShXr-12" value="" style="rhombus;whiteSpace=wrap;html=1;" vertex="1" parent="WIyWlLk6GJQsqaUBKTNV-1">
          <mxGeometry x="570" y="420" width="180" height="160" as="geometry" />
        </mxCell>
        <mxCell id="d1IcYzjku8XP-8QEShXr-20" style="edgeStyle=orthogonalEdgeStyle;rounded=0;orthogonalLoop=1;jettySize=auto;html=1;exitX=1;exitY=0.5;exitDx=0;exitDy=0;entryX=0.5;entryY=0;entryDx=0;entryDy=0;" edge="1" parent="WIyWlLk6GJQsqaUBKTNV-1" source="d1IcYzjku8XP-8QEShXr-14" target="d1IcYzjku8XP-8QEShXr-19">
          <mxGeometry relative="1" as="geometry" />
        </mxCell>
        <mxCell id="d1IcYzjku8XP-8QEShXr-21" style="edgeStyle=orthogonalEdgeStyle;rounded=0;orthogonalLoop=1;jettySize=auto;html=1;exitX=0;exitY=0.5;exitDx=0;exitDy=0;entryX=0.5;entryY=0;entryDx=0;entryDy=0;" edge="1" parent="WIyWlLk6GJQsqaUBKTNV-1" source="d1IcYzjku8XP-8QEShXr-14" target="d1IcYzjku8XP-8QEShXr-18">
          <mxGeometry relative="1" as="geometry" />
        </mxCell>
        <mxCell id="d1IcYzjku8XP-8QEShXr-14" value="" style="rhombus;whiteSpace=wrap;html=1;" vertex="1" parent="WIyWlLk6GJQsqaUBKTNV-1">
          <mxGeometry x="400" y="530" width="160" height="130" as="geometry" />
        </mxCell>
        <mxCell id="d1IcYzjku8XP-8QEShXr-16" value="" style="shape=document;whiteSpace=wrap;html=1;boundedLbl=1;" vertex="1" parent="WIyWlLk6GJQsqaUBKTNV-1">
          <mxGeometry x="730" y="630" width="90" height="40" as="geometry" />
        </mxCell>
        <mxCell id="d1IcYzjku8XP-8QEShXr-18" value="" style="shape=document;whiteSpace=wrap;html=1;boundedLbl=1;" vertex="1" parent="WIyWlLk6GJQsqaUBKTNV-1">
          <mxGeometry x="320" y="670" width="100" height="50" as="geometry" />
        </mxCell>
        <mxCell id="d1IcYzjku8XP-8QEShXr-19" value="" style="shape=document;whiteSpace=wrap;html=1;boundedLbl=1;" vertex="1" parent="WIyWlLk6GJQsqaUBKTNV-1">
          <mxGeometry x="580" y="640" width="70" height="50" as="geometry" />
        </mxCell>
        <mxCell id="d1IcYzjku8XP-8QEShXr-25" value="" style="ellipse;whiteSpace=wrap;html=1;" vertex="1" parent="WIyWlLk6GJQsqaUBKTNV-1">
          <mxGeometry x="145" y="800" width="120" height="80" as="geometry" />
        </mxCell>
        <mxCell id="d1IcYzjku8XP-8QEShXr-27" value="INICIO" style="text;html=1;strokeColor=none;fillColor=none;align=center;verticalAlign=middle;whiteSpace=wrap;rounded=0;" vertex="1" parent="WIyWlLk6GJQsqaUBKTNV-1">
          <mxGeometry x="215" y="10" width="40" height="20" as="geometry" />
        </mxCell>
        <mxCell id="d1IcYzjku8XP-8QEShXr-28" value="Definimos las los puertos de salida, declaramos las variables de adc y contador, las funciones para los puertos, sistema de reloj,funciones del adc, iniciamos todo." style="text;html=1;strokeColor=none;fillColor=none;align=center;verticalAlign=middle;whiteSpace=wrap;rounded=0;" vertex="1" parent="WIyWlLk6GJQsqaUBKTNV-1">
          <mxGeometry x="90" y="80" width="280" height="90" as="geometry" />
        </mxCell>
        <mxCell id="d1IcYzjku8XP-8QEShXr-33" value="Damos start al adc y entramos en un ciclo if , después le damos stop y con un pequeño retraso limpiamos los puertos." style="text;html=1;strokeColor=none;fillColor=none;align=center;verticalAlign=middle;whiteSpace=wrap;rounded=0;" vertex="1" parent="WIyWlLk6GJQsqaUBKTNV-1">
          <mxGeometry x="130" y="210" width="150" height="180" as="geometry" />
        </mxCell>
        <mxCell id="d1IcYzjku8XP-8QEShXr-34" value="si el adc , recibe una entrada la almacena en una variable y la manda a evaluar en otro ciclo if" style="text;html=1;strokeColor=none;fillColor=none;align=center;verticalAlign=middle;whiteSpace=wrap;rounded=0;" vertex="1" parent="WIyWlLk6GJQsqaUBKTNV-1">
          <mxGeometry x="432.5" y="340" width="130" height="80" as="geometry" />
        </mxCell>
        <mxCell id="d1IcYzjku8XP-8QEShXr-37" value="evaluamos el adcValue&amp;lt;=2048&amp;nbsp;" style="text;html=1;strokeColor=none;fillColor=none;align=center;verticalAlign=middle;whiteSpace=wrap;rounded=0;" vertex="1" parent="WIyWlLk6GJQsqaUBKTNV-1">
          <mxGeometry x="580" y="450" width="160" height="90" as="geometry" />
        </mxCell>
        <mxCell id="d1IcYzjku8XP-8QEShXr-39" value="Azul" style="text;html=1;strokeColor=none;fillColor=none;align=center;verticalAlign=middle;whiteSpace=wrap;rounded=0;" vertex="1" parent="WIyWlLk6GJQsqaUBKTNV-1">
          <mxGeometry x="755" y="630" width="40" height="20" as="geometry" />
        </mxCell>
        <mxCell id="d1IcYzjku8XP-8QEShXr-40" value="Rojo" style="text;html=1;strokeColor=none;fillColor=none;align=center;verticalAlign=middle;whiteSpace=wrap;rounded=0;" vertex="1" parent="WIyWlLk6GJQsqaUBKTNV-1">
          <mxGeometry x="595" y="650" width="40" height="20" as="geometry" />
        </mxCell>
        <mxCell id="d1IcYzjku8XP-8QEShXr-41" value="Verde" style="text;html=1;strokeColor=none;fillColor=none;align=center;verticalAlign=middle;whiteSpace=wrap;rounded=0;" vertex="1" parent="WIyWlLk6GJQsqaUBKTNV-1">
          <mxGeometry x="350" y="680" width="40" height="20" as="geometry" />
        </mxCell>
        <mxCell id="d1IcYzjku8XP-8QEShXr-42" value="evaluamos el adcValue&amp;gt;2458&lt;br&gt;" style="text;html=1;strokeColor=none;fillColor=none;align=center;verticalAlign=middle;whiteSpace=wrap;rounded=0;" vertex="1" parent="WIyWlLk6GJQsqaUBKTNV-1">
          <mxGeometry x="414" y="540" width="140" height="100" as="geometry" />
        </mxCell>
        <mxCell id="d1IcYzjku8XP-8QEShXr-44" value="FIN" style="text;html=1;strokeColor=none;fillColor=none;align=center;verticalAlign=middle;whiteSpace=wrap;rounded=0;" vertex="1" parent="WIyWlLk6GJQsqaUBKTNV-1">
          <mxGeometry x="185" y="830" width="40" height="20" as="geometry" />
        </mxCell>
        <mxCell id="d1IcYzjku8XP-8QEShXr-47" value="if" style="text;html=1;strokeColor=none;fillColor=none;align=center;verticalAlign=middle;whiteSpace=wrap;rounded=0;fontStyle=1" vertex="1" parent="WIyWlLk6GJQsqaUBKTNV-1">
          <mxGeometry x="510" y="280" width="40" height="30" as="geometry" />
        </mxCell>
        <mxCell id="d1IcYzjku8XP-8QEShXr-48" value="&lt;b&gt;while&lt;/b&gt;" style="text;html=1;strokeColor=none;fillColor=none;align=center;verticalAlign=middle;whiteSpace=wrap;rounded=0;" vertex="1" parent="WIyWlLk6GJQsqaUBKTNV-1">
          <mxGeometry x="240" y="210" width="40" height="20" as="geometry" />
        </mxCell>
        <mxCell id="d1IcYzjku8XP-8QEShXr-49" value="&lt;b&gt;if&lt;/b&gt;" style="text;html=1;strokeColor=none;fillColor=none;align=center;verticalAlign=middle;whiteSpace=wrap;rounded=0;" vertex="1" parent="WIyWlLk6GJQsqaUBKTNV-1">
          <mxGeometry x="670" y="420" width="40" height="20" as="geometry" />
        </mxCell>
        <mxCell id="d1IcYzjku8XP-8QEShXr-50" value="&lt;b&gt;else&lt;/b&gt;" style="text;html=1;strokeColor=none;fillColor=none;align=center;verticalAlign=middle;whiteSpace=wrap;rounded=0;" vertex="1" parent="WIyWlLk6GJQsqaUBKTNV-1">
          <mxGeometry x="540" y="470" width="40" height="20" as="geometry" />
        </mxCell>
        <mxCell id="d1IcYzjku8XP-8QEShXr-51" value="&lt;b&gt;if&lt;/b&gt;" style="text;html=1;strokeColor=none;fillColor=none;align=center;verticalAlign=middle;whiteSpace=wrap;rounded=0;" vertex="1" parent="WIyWlLk6GJQsqaUBKTNV-1">
          <mxGeometry x="490" y="530" width="40" height="20" as="geometry" />
        </mxCell>
        <mxCell id="d1IcYzjku8XP-8QEShXr-52" value="&lt;b&gt;else&lt;/b&gt;" style="text;html=1;strokeColor=none;fillColor=none;align=center;verticalAlign=middle;whiteSpace=wrap;rounded=0;" vertex="1" parent="WIyWlLk6GJQsqaUBKTNV-1">
          <mxGeometry x="380" y="560" width="40" height="20" as="geometry" />
        </mxCell>
      </root>
    </mxGraphModel>
  </diagram>
</mxfile>
